<?xml version="1.0" encoding="utf-8" ?>
<svg xmlns="http://www.w3.org/2000/svg" xmlns:xlink="http://www.w3.org/1999/xlink" width="1621" height="701">
	<path fill="#D36F2F" transform="scale(2.67559 2.67559)" d="M377.317 105.244Q377.576 105.228 377.835 105.227C379.085 105.219 380.838 105.196 381.769 106.193C384.906 109.554 382.994 125.58 383.152 130.499C383.208 132.261 384.116 133.852 384.105 135.576C388.808 136.548 398.402 136.874 403.009 135.976C403.969 135.789 405.318 135.445 405.868 134.545C408.447 130.328 404.349 110.979 407.607 106.174C408.543 105.488 409.673 105.385 410.801 105.328C412.465 105.243 415.21 105.137 416.484 106.368C417.146 107.007 417.415 107.917 417.56 108.798C418.283 113.197 417.836 118.144 417.804 122.614C417.765 127.917 417.896 133.227 417.801 138.529C417.762 140.739 417.969 145.198 416.275 146.833C414.474 147.582 412.25 147.478 410.337 147.499L402.445 147.377C401.707 148.168 400.814 148.564 399.856 149.025C399.973 149.279 400.078 149.534 400.159 149.803C401.015 152.654 400.861 169.542 400.456 173.075C400.35 174.001 400.113 174.942 399.644 175.755C399.046 176.791 397.977 177.752 396.795 178.036C394.951 178.478 392.3 178.079 390.692 177.071C387.442 175.034 390.271 154.403 389.064 149.528C387.959 145.07 377.616 149.045 373.782 146.589C372.879 146.01 372.62 144.878 372.406 143.883C370.864 136.731 372.245 128.666 372.248 121.367C372.25 117.49 371.681 113.532 371.942 109.665C371.999 108.807 372.17 107.9 372.652 107.172C373.588 105.763 375.781 105.537 377.317 105.244Z"/>
	<path fill="#D36F2F" transform="scale(2.67559 2.67559)" d="M321.28 107.019C322.072 106.868 322.64 106.782 323.441 106.965C328.347 110.378 332.778 120.367 335.807 125.514C336.729 127.081 337.87 128.416 338.818 129.933C343.894 127.555 348.774 112.21 353.631 108.326C354.719 107.455 356.164 107.105 357.538 107.276Q357.834 107.313 358.124 107.379Q358.415 107.445 358.698 107.54Q358.98 107.636 359.252 107.758Q359.523 107.881 359.781 108.031Q360.039 108.18 360.281 108.355Q360.523 108.529 360.746 108.727Q360.969 108.925 361.171 109.144Q361.373 109.364 361.552 109.602C362.457 110.785 362.761 112.198 362.536 113.66C362.363 114.788 361.928 115.885 361.403 116.895C360.055 119.488 358.137 121.93 356.617 124.449C354.086 128.642 348.561 140.268 345.274 142.646C345.437 142.75 345.582 142.853 345.733 142.974C348.398 145.095 362.496 168.823 362.796 172.081C362.896 173.176 362.376 174.208 361.663 175.006C360.242 176.597 357.851 177.705 355.736 177.845C351.215 176.253 345.022 161.474 341.719 157.112C340.973 156.127 340.334 155.387 339.083 155.215C335.304 156.991 329.714 173.006 324.796 176.709C323.819 177.445 322.745 177.795 321.522 177.602C319.796 177.33 317.324 175.408 316.382 174.026C315.567 172.83 315.757 171.645 316.205 170.33C317.689 165.972 321.286 161.792 323.72 157.873C325.763 154.585 327.584 151.147 329.567 147.82C330.437 146.359 332.073 144.273 332.346 142.605C332.355 142.545 332.363 142.486 332.371 142.426C332.378 142.339 332.398 142.181 332.384 142.084C332.183 140.727 317.63 116.184 315.47 113.239C315.163 112.821 314.781 112.51 314.351 112.229C316.77 110.698 318.785 108.534 321.28 107.019Z"/>
	<path fill="#D36F2F" transform="scale(2.67559 2.67559)" d="M135.419 105.236C141.33 105.312 147.252 105.465 153.162 105.407C158.081 105.358 170.762 104.47 175.018 105.662C175.915 105.913 176.681 106.727 177.092 107.538C177.899 109.131 178.132 111.966 177.515 113.659C176.973 115.144 175.63 116.017 174.161 116.424C171.628 117.125 168.555 116.786 165.943 116.743C161.767 116.675 143.881 115.691 140.883 117.233C140.01 117.681 139.536 118.485 139.243 119.394C138.322 122.243 138.185 131.804 139.586 134.471C140.128 135.503 141.34 135.849 142.406 136.046C146.945 136.887 159.929 136.12 165.326 136.107C167.796 136.101 170.576 135.91 172.956 136.656C173.913 136.956 174.831 137.442 175.287 138.379C176.329 140.522 175.841 143.938 175.096 146.131C168.228 149.706 148.169 145.079 140.817 147.891C140.353 148.068 139.624 148.321 139.357 148.764C137.018 152.637 140.498 171.124 138.14 176.208C137.818 176.902 137.272 177.267 136.57 177.506C134.684 178.149 131.14 178.231 129.347 177.305C128.66 176.95 128.319 176.458 128.124 175.726C126.677 170.312 127.66 142.727 127.709 135.779C127.768 127.522 127.269 119.08 127.789 110.847C127.884 109.348 128.022 107.727 128.803 106.413C130.44 105.084 133.379 105.327 135.419 105.236Z"/>
	<path fill="#D36F2F" transform="scale(2.67559 2.67559)" d="M207.261 105.242C212.014 105.21 236.572 104.359 239.369 106.416C240.465 107.222 240.684 108.553 240.876 109.824C241.127 111.49 241.101 113.326 240.021 114.715C239.113 115.884 237.698 116.431 236.277 116.657C233.015 117.175 229.326 116.693 226.004 116.607C218.343 116.408 210.335 116.102 202.737 117.213C202.355 118.555 202.013 119.89 201.896 121.284C201.302 128.371 201.703 135.732 201.703 142.847C201.702 149.259 201.269 155.894 201.85 162.28C201.963 163.515 202.242 164.591 202.689 165.749C208.889 168.069 221.746 166.431 228.863 166.442C231.06 166.444 233.3 166.471 235.491 166.614C237.038 166.715 239.162 167.073 240.166 168.391C241.035 169.531 240.941 172.724 240.745 174.124C240.552 175.498 240.207 176.504 239.073 177.342C233.399 178.987 220.002 177.861 213.685 177.834C207.964 177.81 202.085 178.204 196.383 177.819C194.74 177.708 193.182 177.425 191.632 176.862L191.792 176.332L191.299 176.623C190.511 174.729 190.566 172.242 190.528 170.22C190.299 158.049 190.591 145.833 190.559 133.657C190.538 126.097 189.939 117.875 190.571 110.395C190.69 108.995 190.938 107.117 191.939 106.077C195.971 104.594 202.91 105.267 207.261 105.242Z"/>
	<path fill="#D36F2F" transform="scale(2.67559 2.67559)" d="M429.461 105.54C437.644 105.182 445.897 105.459 454.09 105.439C459.036 105.427 464.142 104.966 469.065 105.338C470.323 105.433 472.025 105.595 473.06 106.356C474.382 107.329 473.876 109.676 473.489 111.004C472.399 114.747 469.893 118.255 468.072 121.682C465.942 125.694 463.986 129.795 461.854 133.806C459.12 138.952 446.286 160.82 446.997 164.642C447.861 169.284 469.808 164.257 474.701 168.019C475.926 168.961 476.639 170.399 476.789 171.926Q476.818 172.234 476.815 172.542Q476.813 172.851 476.78 173.158Q476.747 173.465 476.683 173.767Q476.619 174.07 476.525 174.364Q476.432 174.658 476.309 174.941Q476.186 175.225 476.036 175.495Q475.885 175.764 475.709 176.017Q475.532 176.271 475.331 176.505C474.406 177.564 473.534 177.614 472.179 177.706C466.85 178.175 434.188 178.801 430.662 177.339C429.821 176.991 429.151 176.234 428.826 175.393C428.398 174.283 428.638 173.383 429.043 172.3C430.73 167.79 433.619 163.655 435.89 159.414C438.902 153.79 441.55 147.976 444.582 142.361C447.954 136.113 451.877 129.872 454.697 123.356C455.239 122.103 456.111 120.184 455.474 118.851C453.258 114.215 433.082 118.228 428.127 116.062C427.383 115.737 426.937 115.224 426.656 114.469C426.035 112.802 425.914 108.703 426.715 107.096C427.157 106.211 428.589 105.839 429.461 105.54Z"/>
	<path fill="#D36F2F" transform="scale(2.67559 2.67559)" d="M259.074 105.477C260.005 105.416 260.981 105.397 261.913 105.465C271.445 106.161 262.516 129.817 267.359 135.152C268.408 136.308 270.281 136.379 271.742 136.421C273.772 136.478 276.7 136.51 278.475 135.407C283.342 132.384 292.22 111.659 297.819 106.483C299.23 105.178 301.164 105.216 302.986 105.282C304.695 105.344 306.671 105.564 307.892 106.876C308.339 107.896 308.327 108.769 308.007 109.837C306.375 115.28 297.433 127.81 293.92 133.185C292.566 135.257 290.443 137.801 289.947 140.217C288.548 147.035 303.955 162.087 303.773 166.821C304.052 166.97 304.285 167.144 304.498 167.377C306.16 169.194 308.197 172.486 308.038 175.011C307.993 175.723 307.714 176.415 307.167 176.889C305.259 178.539 300.802 177.947 298.397 177.837C298.392 177.789 298.393 177.74 298.382 177.693C298.125 176.605 295.005 172.948 294.247 171.767C291.223 167.062 281.948 149.67 277.836 147.55C275.316 147.088 270.356 146.991 267.999 148.092C264.13 149.898 267.787 170.182 265.793 175.245C265.308 176.474 264.473 177.443 263.242 177.958C261.874 178.53 258.68 178.556 257.295 177.878C256.513 177.496 256.14 176.584 255.889 175.797C254.268 170.717 255.073 143.433 255.081 136.107C255.091 127.71 254.731 119.18 255.133 110.8C255.184 109.727 255.205 107.881 255.784 106.97C256.466 105.898 257.927 105.738 259.074 105.477Z"/>
</svg>
